<svg width="113" height="31" viewBox="0 0 113 31" fill="none" xmlns="http://www.w3.org/2000/svg">
<g opacity="0.63">
<mask id="path-1-outside-1_3_138" maskUnits="userSpaceOnUse" x="0.272461" y="0.414062" width="113" height="31" fill="black">
<rect fill="white" x="0.272461" y="0.414062" width="113" height="31"/>
<path d="M25.8242 6.77246C24.8252 6.77246 24.1289 6.29818 23.7354 5.34961C22.2822 5.34961 20.6878 5.7028 18.9521 6.40918C17.8724 6.85319 17.1458 7.26188 16.7725 7.63525C16.3991 8.00863 16.1973 8.30127 16.167 8.51318C16.1468 8.7251 16.2528 8.90674 16.4849 9.05811C16.717 9.19938 17.0399 9.33561 17.4536 9.4668C17.8774 9.59798 18.3669 9.72917 18.9219 9.86035C21.8281 10.5365 23.6698 11.0057 24.4468 11.2681C25.9907 11.7827 27.1462 12.3478 27.9131 12.9634C28.6396 13.5789 29.0029 14.4165 29.0029 15.4761C29.0029 16.354 28.7305 17.0957 28.1855 17.7012C27.6507 18.3066 26.9393 18.8465 26.0513 19.3208C25.1632 19.7951 24.1693 20.2189 23.0693 20.5923C21.9795 20.9556 20.8241 21.2684 19.603 21.5308C18.3921 21.7931 17.1963 22.0101 16.0156 22.1816C13.7048 22.5046 11.7319 22.666 10.0972 22.666C7.12028 22.666 4.82454 22.3078 3.20996 21.5913C2.60449 21.3188 2.11003 20.6377 1.72656 19.5479C1.42383 18.6497 1.27246 17.9131 1.27246 17.3379C1.27246 16.7526 1.32292 16.4297 1.42383 16.3691C1.52474 16.3086 1.73161 16.3086 2.04443 16.3691C2.35726 16.4196 2.76595 16.5104 3.27051 16.6416L5.08691 17.126C7.90234 17.8324 10.8792 18.1855 14.0176 18.1855C16.3285 18.1855 18.2861 17.9787 19.8906 17.5649C20.8392 17.3127 21.3438 17.0301 21.4043 16.7173C21.4447 16.4448 20.6979 16.1068 19.1641 15.7031C18.4678 15.5114 17.6605 15.3096 16.7422 15.0977C12.292 14.0179 9.60775 13.3216 8.68945 13.0088C7.77116 12.696 7.17074 12.4185 6.88818 12.1763C6.61572 11.9341 6.38867 11.6667 6.20703 11.374C5.87402 10.7988 5.70752 10.2539 5.70752 9.73926C5.70752 9.21452 5.73275 8.81087 5.7832 8.52832C5.84375 8.24577 5.92448 7.9834 6.02539 7.74121C6.2373 7.24674 6.50472 6.90869 6.82764 6.72705C9.42106 5.27393 13.2305 3.9974 18.2559 2.89746C22.7262 1.90853 26.4045 1.41406 29.2905 1.41406C29.8758 1.41406 30.3148 1.51497 30.6074 1.7168C31.112 2.09017 31.334 2.48877 31.2734 2.9126C31.2129 3.33643 31.0817 3.72998 30.8799 4.09326C30.6882 4.44645 30.446 4.76937 30.1533 5.06201C29.8607 5.34456 29.5327 5.59684 29.1694 5.81885C28.8162 6.03076 28.4479 6.20736 28.0645 6.34863C27.2975 6.63119 26.5508 6.77246 25.8242 6.77246Z"/>
<path d="M36.2922 18.2158C36.6252 18.0745 37.0894 17.8525 37.6847 17.5498C41.3276 15.6829 43.3257 14.6536 43.6789 14.4619L44.3146 14.1138C44.9706 13.6899 45.2733 13.3569 45.2228 13.1147C45.1118 12.6001 44.8343 12.3932 44.3903 12.4941C43.9463 12.585 43.4821 12.7111 42.9977 12.8726C42.5234 13.034 42.0189 13.2308 41.4841 13.4629C40.3639 13.9271 39.3801 14.3913 38.5324 14.8555C35.5656 16.5609 33.7795 17.5952 33.174 17.9585C32.7401 18.9373 32.3516 19.9111 32.0085 20.8799L30.1769 26.0566C29.6017 27.6611 29.0215 28.7459 28.4362 29.311C28.1234 29.6239 27.7752 29.7803 27.3918 29.7803C26.4432 29.7803 25.6965 29.4473 25.1515 28.7812C24.6066 28.1253 24.3342 27.2878 24.3342 26.2686C24.3342 25.2594 24.4653 24.2604 24.7277 23.2715C24.9901 22.2926 25.3534 21.2987 25.8176 20.2896C26.756 18.2511 28.0124 16.349 29.5866 14.583C30.5453 12.0098 32.1397 9.51221 34.3698 7.09033C35.7321 5.61702 36.9985 4.57764 38.1691 3.97217C38.7544 3.66943 39.2539 3.51807 39.6677 3.51807C40.0814 3.51807 40.3942 3.61393 40.6061 3.80566C40.818 3.9873 40.924 4.2194 40.924 4.50195C40.924 4.77441 40.8382 5.12256 40.6667 5.54639C40.4951 5.97021 40.263 6.4445 39.9704 6.96924C39.6777 7.49398 39.3346 8.05404 38.9411 8.64941L37.6847 10.481C37.5838 10.6323 37.5334 10.7686 37.5334 10.8896C37.5334 11.0814 37.6494 11.1772 37.8815 11.1772C38.1439 11.1772 38.6283 11.0107 39.3346 10.6777L41.7565 9.55762C43.8757 8.59896 45.904 8.11963 47.8415 8.11963C48.8506 8.11963 49.7992 8.59896 50.6872 9.55762C51.5853 10.5264 52.0344 11.5658 52.0344 12.6758C52.0344 14.3913 51.333 15.7132 49.9304 16.6416L48.0534 17.8828C47.3773 18.3066 46.681 18.7254 45.9645 19.1392L43.7848 20.335C41.3327 21.6064 39.4356 22.2422 38.0934 22.2422C36.7614 22.2422 35.7927 22.0757 35.1872 21.7427C34.5817 21.4097 34.279 20.9404 34.279 20.335C34.279 19.5176 34.95 18.8112 36.2922 18.2158Z"/>
<path d="M76.9579 10.6323C77.2808 10.6323 77.4422 10.9048 77.4422 11.4497C77.4422 12.3882 76.7863 13.6042 75.4745 15.0977L74.6117 15.9756C71.9981 18.5892 69.5358 20.3299 67.225 21.1978C65.792 21.7326 64.7627 21.7074 64.1371 21.1221C63.6224 20.6276 63.2137 19.8304 62.911 18.7305L62.5477 17.4136L59.3236 19.3965L57.4618 20.4561C55.2417 21.667 53.5767 22.2725 52.4667 22.2725C51.0438 22.2725 49.8581 21.7225 48.9095 20.6226C48.0013 19.5832 47.5472 18.3773 47.5472 17.0049C47.5472 15.6527 48.0871 14.4468 49.1669 13.3872C50.7108 11.8735 53.1478 10.486 56.4779 9.22461C59.6263 8.04395 62.1693 7.45361 64.1068 7.45361C64.7627 7.45361 65.0907 7.77653 65.0907 8.42236C65.0907 8.86637 65.0049 9.19938 64.8334 9.42139C64.6618 9.64339 64.3086 9.87044 63.7738 10.1025L61.8666 10.9199C59.041 12.1006 56.9724 13.3267 55.6605 14.5981C55.2871 14.9513 55.1004 15.2944 55.1004 15.6274C55.1004 15.9604 55.3679 16.127 55.9027 16.127C56.4274 16.127 57.6485 15.5618 59.5658 14.4316L60.8221 13.6899C62.7697 12.5194 64.3994 11.9341 65.7113 11.9341C66.8213 11.9341 67.558 12.4235 67.9212 13.4023C68.0121 13.6647 68.0978 13.9321 68.1786 14.2046C68.2593 14.467 68.34 14.7041 68.4208 14.916C68.6024 15.4105 68.7639 15.6577 68.9051 15.6577C69.0565 15.6577 69.2684 15.5871 69.5409 15.4458C69.8133 15.2944 70.111 15.1077 70.4339 14.8857C70.767 14.6536 71.1101 14.4014 71.4632 14.1289L73.2948 12.6606C74.9195 11.3084 76.1405 10.6323 76.9579 10.6323Z"/>
<path d="M94.4341 12.2368C94.4341 12.7111 93.8135 13.6294 92.5723 14.9917C91.3008 16.3742 90.0546 17.4993 88.8335 18.3672C86.4722 20.123 83.8536 21.3239 80.9776 21.9697C79.8877 22.222 78.8534 22.3481 77.8745 22.3481C76.9058 22.3481 76.0985 22.2624 75.4527 22.0908C74.8169 21.9294 74.2417 21.7124 73.7271 21.4399C73.2225 21.1574 72.7836 20.8345 72.4102 20.4712C72.0368 20.1079 71.724 19.7244 71.4717 19.3208C70.9772 18.5337 70.73 17.8071 70.73 17.1411C70.73 16.4751 70.8057 15.8898 70.9571 15.3853C71.0983 14.8807 71.3002 14.4014 71.5625 13.9473C72.4808 12.2923 74.3275 10.8291 77.1026 9.55762C79.2924 8.53841 81.3812 7.87744 83.3692 7.57471C84.2269 7.44352 84.8374 7.37793 85.2007 7.37793C85.564 7.37793 85.8667 7.41829 86.1089 7.49902C86.3612 7.56966 86.5782 7.67057 86.7598 7.80176C87.1635 8.0944 87.3653 8.493 87.3653 8.99756C87.3653 9.50212 87.2341 9.98145 86.9717 10.4355C86.7094 10.8796 86.3763 11.2529 85.9727 11.5557C85.1856 12.141 84.3077 12.4336 83.3389 12.4336C82.017 12.4336 80.9271 12.262 80.0694 11.9189C79.474 12.1309 78.9694 12.5194 78.5557 13.0845C78.2126 13.5487 78.0411 13.9674 78.0411 14.3408C78.0411 14.7041 78.1218 15.0623 78.2832 15.4155C78.4548 15.7586 78.6919 16.0664 78.9947 16.3389C79.6607 16.9242 80.4629 17.2168 81.4014 17.2168C83.5811 17.2168 86.119 16.0614 89.0152 13.7505L90.3926 12.6758C91.8457 11.5658 92.8801 11.0107 93.4956 11.0107C94.1213 11.0107 94.4341 11.4194 94.4341 12.2368Z"/>
<path d="M110.911 10.8745C111.396 10.8745 111.638 11.147 111.638 11.6919C111.638 12.0552 111.512 12.5143 111.259 13.0693C111.017 13.6143 110.664 14.1289 110.2 14.6133C109.736 15.0876 109.201 15.582 108.595 16.0967C108 16.6113 107.299 17.1512 106.491 17.7163C105.694 18.2814 104.811 18.8415 103.842 19.3965C102.874 19.9515 101.844 20.451 100.755 20.895C98.3428 21.884 96.0067 22.3784 93.7463 22.3784C92.0207 22.3784 90.5121 21.9294 89.2204 21.0312C87.8682 20.0928 87.1921 18.9525 87.1921 17.6104C87.1921 15.5013 88.3274 13.4982 90.5979 11.6011C92.5555 9.96631 94.8614 8.69987 97.5154 7.80176C99.1299 7.25684 100.497 6.98438 101.617 6.98438C102.526 6.98438 103.293 7.20638 103.918 7.65039C104.584 8.13477 104.917 8.78564 104.917 9.60303C104.917 10.8846 103.903 12.3024 101.875 13.8564C101.552 14.1087 101.259 14.3206 100.997 14.4922L100.452 14.8555C99.4428 15.5618 97.9089 16.354 95.8503 17.2319C96.4861 17.5649 97.0764 17.7314 97.6213 17.7314C98.1763 17.7314 98.6708 17.6659 99.1047 17.5347C99.5487 17.4035 100.048 17.2168 100.603 16.9746C101.158 16.7324 101.749 16.4448 102.374 16.1118C103.01 15.7687 103.651 15.3953 104.297 14.9917C105.74 14.0936 106.991 13.1753 108.051 12.2368C108.606 11.7222 109.312 11.3135 110.17 11.0107C110.452 10.9199 110.699 10.8745 110.911 10.8745ZM94.2155 15.1279L95.0481 14.7041C95.3205 14.5628 95.5627 14.4316 95.7746 14.3105C97.813 13.14 98.9735 12.4185 99.2561 12.146C99.5386 11.8735 99.6799 11.6868 99.6799 11.5859C99.6799 11.4749 99.6496 11.3488 99.5891 11.2075C99.5285 11.0662 99.4478 10.9401 99.3469 10.8291C99.1047 10.5465 98.8474 10.4053 98.5749 10.4053C98.3025 10.4053 97.9997 10.4557 97.6667 10.5566C97.3438 10.6576 97.0158 10.7988 96.6828 10.9805C96.3498 11.152 96.0269 11.3639 95.7141 11.6162C95.4113 11.8584 95.1439 12.1208 94.9118 12.4033C94.377 13.0391 94.1096 13.589 94.1096 14.0532C94.1096 14.5174 94.1449 14.8757 94.2155 15.1279Z"/>
</mask>
<path d="M25.8242 6.77246C24.8252 6.77246 24.1289 6.29818 23.7354 5.34961C22.2822 5.34961 20.6878 5.7028 18.9521 6.40918C17.8724 6.85319 17.1458 7.26188 16.7725 7.63525C16.3991 8.00863 16.1973 8.30127 16.167 8.51318C16.1468 8.7251 16.2528 8.90674 16.4849 9.05811C16.717 9.19938 17.0399 9.33561 17.4536 9.4668C17.8774 9.59798 18.3669 9.72917 18.9219 9.86035C21.8281 10.5365 23.6698 11.0057 24.4468 11.2681C25.9907 11.7827 27.1462 12.3478 27.9131 12.9634C28.6396 13.5789 29.0029 14.4165 29.0029 15.4761C29.0029 16.354 28.7305 17.0957 28.1855 17.7012C27.6507 18.3066 26.9393 18.8465 26.0513 19.3208C25.1632 19.7951 24.1693 20.2189 23.0693 20.5923C21.9795 20.9556 20.8241 21.2684 19.603 21.5308C18.3921 21.7931 17.1963 22.0101 16.0156 22.1816C13.7048 22.5046 11.7319 22.666 10.0972 22.666C7.12028 22.666 4.82454 22.3078 3.20996 21.5913C2.60449 21.3188 2.11003 20.6377 1.72656 19.5479C1.42383 18.6497 1.27246 17.9131 1.27246 17.3379C1.27246 16.7526 1.32292 16.4297 1.42383 16.3691C1.52474 16.3086 1.73161 16.3086 2.04443 16.3691C2.35726 16.4196 2.76595 16.5104 3.27051 16.6416L5.08691 17.126C7.90234 17.8324 10.8792 18.1855 14.0176 18.1855C16.3285 18.1855 18.2861 17.9787 19.8906 17.5649C20.8392 17.3127 21.3438 17.0301 21.4043 16.7173C21.4447 16.4448 20.6979 16.1068 19.1641 15.7031C18.4678 15.5114 17.6605 15.3096 16.7422 15.0977C12.292 14.0179 9.60775 13.3216 8.68945 13.0088C7.77116 12.696 7.17074 12.4185 6.88818 12.1763C6.61572 11.9341 6.38867 11.6667 6.20703 11.374C5.87402 10.7988 5.70752 10.2539 5.70752 9.73926C5.70752 9.21452 5.73275 8.81087 5.7832 8.52832C5.84375 8.24577 5.92448 7.9834 6.02539 7.74121C6.2373 7.24674 6.50472 6.90869 6.82764 6.72705C9.42106 5.27393 13.2305 3.9974 18.2559 2.89746C22.7262 1.90853 26.4045 1.41406 29.2905 1.41406C29.8758 1.41406 30.3148 1.51497 30.6074 1.7168C31.112 2.09017 31.334 2.48877 31.2734 2.9126C31.2129 3.33643 31.0817 3.72998 30.8799 4.09326C30.6882 4.44645 30.446 4.76937 30.1533 5.06201C29.8607 5.34456 29.5327 5.59684 29.1694 5.81885C28.8162 6.03076 28.4479 6.20736 28.0645 6.34863C27.2975 6.63119 26.5508 6.77246 25.8242 6.77246Z" fill="#23242A"/>
<path d="M36.2922 18.2158C36.6252 18.0745 37.0894 17.8525 37.6847 17.5498C41.3276 15.6829 43.3257 14.6536 43.6789 14.4619L44.3146 14.1138C44.9706 13.6899 45.2733 13.3569 45.2228 13.1147C45.1118 12.6001 44.8343 12.3932 44.3903 12.4941C43.9463 12.585 43.4821 12.7111 42.9977 12.8726C42.5234 13.034 42.0189 13.2308 41.4841 13.4629C40.3639 13.9271 39.3801 14.3913 38.5324 14.8555C35.5656 16.5609 33.7795 17.5952 33.174 17.9585C32.7401 18.9373 32.3516 19.9111 32.0085 20.8799L30.1769 26.0566C29.6017 27.6611 29.0215 28.7459 28.4362 29.311C28.1234 29.6239 27.7752 29.7803 27.3918 29.7803C26.4432 29.7803 25.6965 29.4473 25.1515 28.7812C24.6066 28.1253 24.3342 27.2878 24.3342 26.2686C24.3342 25.2594 24.4653 24.2604 24.7277 23.2715C24.9901 22.2926 25.3534 21.2987 25.8176 20.2896C26.756 18.2511 28.0124 16.349 29.5866 14.583C30.5453 12.0098 32.1397 9.51221 34.3698 7.09033C35.7321 5.61702 36.9985 4.57764 38.1691 3.97217C38.7544 3.66943 39.2539 3.51807 39.6677 3.51807C40.0814 3.51807 40.3942 3.61393 40.6061 3.80566C40.818 3.9873 40.924 4.2194 40.924 4.50195C40.924 4.77441 40.8382 5.12256 40.6667 5.54639C40.4951 5.97021 40.263 6.4445 39.9704 6.96924C39.6777 7.49398 39.3346 8.05404 38.9411 8.64941L37.6847 10.481C37.5838 10.6323 37.5334 10.7686 37.5334 10.8896C37.5334 11.0814 37.6494 11.1772 37.8815 11.1772C38.1439 11.1772 38.6283 11.0107 39.3346 10.6777L41.7565 9.55762C43.8757 8.59896 45.904 8.11963 47.8415 8.11963C48.8506 8.11963 49.7992 8.59896 50.6872 9.55762C51.5853 10.5264 52.0344 11.5658 52.0344 12.6758C52.0344 14.3913 51.333 15.7132 49.9304 16.6416L48.0534 17.8828C47.3773 18.3066 46.681 18.7254 45.9645 19.1392L43.7848 20.335C41.3327 21.6064 39.4356 22.2422 38.0934 22.2422C36.7614 22.2422 35.7927 22.0757 35.1872 21.7427C34.5817 21.4097 34.279 20.9404 34.279 20.335C34.279 19.5176 34.95 18.8112 36.2922 18.2158Z" fill="#23242A"/>
<path d="M76.9579 10.6323C77.2808 10.6323 77.4422 10.9048 77.4422 11.4497C77.4422 12.3882 76.7863 13.6042 75.4745 15.0977L74.6117 15.9756C71.9981 18.5892 69.5358 20.3299 67.225 21.1978C65.792 21.7326 64.7627 21.7074 64.1371 21.1221C63.6224 20.6276 63.2137 19.8304 62.911 18.7305L62.5477 17.4136L59.3236 19.3965L57.4618 20.4561C55.2417 21.667 53.5767 22.2725 52.4667 22.2725C51.0438 22.2725 49.8581 21.7225 48.9095 20.6226C48.0013 19.5832 47.5472 18.3773 47.5472 17.0049C47.5472 15.6527 48.0871 14.4468 49.1669 13.3872C50.7108 11.8735 53.1478 10.486 56.4779 9.22461C59.6263 8.04395 62.1693 7.45361 64.1068 7.45361C64.7627 7.45361 65.0907 7.77653 65.0907 8.42236C65.0907 8.86637 65.0049 9.19938 64.8334 9.42139C64.6618 9.64339 64.3086 9.87044 63.7738 10.1025L61.8666 10.9199C59.041 12.1006 56.9724 13.3267 55.6605 14.5981C55.2871 14.9513 55.1004 15.2944 55.1004 15.6274C55.1004 15.9604 55.3679 16.127 55.9027 16.127C56.4274 16.127 57.6485 15.5618 59.5658 14.4316L60.8221 13.6899C62.7697 12.5194 64.3994 11.9341 65.7113 11.9341C66.8213 11.9341 67.558 12.4235 67.9212 13.4023C68.0121 13.6647 68.0978 13.9321 68.1786 14.2046C68.2593 14.467 68.34 14.7041 68.4208 14.916C68.6024 15.4105 68.7639 15.6577 68.9051 15.6577C69.0565 15.6577 69.2684 15.5871 69.5409 15.4458C69.8133 15.2944 70.111 15.1077 70.4339 14.8857C70.767 14.6536 71.1101 14.4014 71.4632 14.1289L73.2948 12.6606C74.9195 11.3084 76.1405 10.6323 76.9579 10.6323Z" fill="#23242A"/>
<path d="M94.4341 12.2368C94.4341 12.7111 93.8135 13.6294 92.5723 14.9917C91.3008 16.3742 90.0546 17.4993 88.8335 18.3672C86.4722 20.123 83.8536 21.3239 80.9776 21.9697C79.8877 22.222 78.8534 22.3481 77.8745 22.3481C76.9058 22.3481 76.0985 22.2624 75.4527 22.0908C74.8169 21.9294 74.2417 21.7124 73.7271 21.4399C73.2225 21.1574 72.7836 20.8345 72.4102 20.4712C72.0368 20.1079 71.724 19.7244 71.4717 19.3208C70.9772 18.5337 70.73 17.8071 70.73 17.1411C70.73 16.4751 70.8057 15.8898 70.9571 15.3853C71.0983 14.8807 71.3002 14.4014 71.5625 13.9473C72.4808 12.2923 74.3275 10.8291 77.1026 9.55762C79.2924 8.53841 81.3812 7.87744 83.3692 7.57471C84.2269 7.44352 84.8374 7.37793 85.2007 7.37793C85.564 7.37793 85.8667 7.41829 86.1089 7.49902C86.3612 7.56966 86.5782 7.67057 86.7598 7.80176C87.1635 8.0944 87.3653 8.493 87.3653 8.99756C87.3653 9.50212 87.2341 9.98145 86.9717 10.4355C86.7094 10.8796 86.3763 11.2529 85.9727 11.5557C85.1856 12.141 84.3077 12.4336 83.3389 12.4336C82.017 12.4336 80.9271 12.262 80.0694 11.9189C79.474 12.1309 78.9694 12.5194 78.5557 13.0845C78.2126 13.5487 78.0411 13.9674 78.0411 14.3408C78.0411 14.7041 78.1218 15.0623 78.2832 15.4155C78.4548 15.7586 78.6919 16.0664 78.9947 16.3389C79.6607 16.9242 80.4629 17.2168 81.4014 17.2168C83.5811 17.2168 86.119 16.0614 89.0152 13.7505L90.3926 12.6758C91.8457 11.5658 92.8801 11.0107 93.4956 11.0107C94.1213 11.0107 94.4341 11.4194 94.4341 12.2368Z" fill="#23242A"/>
<path d="M110.911 10.8745C111.396 10.8745 111.638 11.147 111.638 11.6919C111.638 12.0552 111.512 12.5143 111.259 13.0693C111.017 13.6143 110.664 14.1289 110.2 14.6133C109.736 15.0876 109.201 15.582 108.595 16.0967C108 16.6113 107.299 17.1512 106.491 17.7163C105.694 18.2814 104.811 18.8415 103.842 19.3965C102.874 19.9515 101.844 20.451 100.755 20.895C98.3428 21.884 96.0067 22.3784 93.7463 22.3784C92.0207 22.3784 90.5121 21.9294 89.2204 21.0312C87.8682 20.0928 87.1921 18.9525 87.1921 17.6104C87.1921 15.5013 88.3274 13.4982 90.5979 11.6011C92.5555 9.96631 94.8614 8.69987 97.5154 7.80176C99.1299 7.25684 100.497 6.98438 101.617 6.98438C102.526 6.98438 103.293 7.20638 103.918 7.65039C104.584 8.13477 104.917 8.78564 104.917 9.60303C104.917 10.8846 103.903 12.3024 101.875 13.8564C101.552 14.1087 101.259 14.3206 100.997 14.4922L100.452 14.8555C99.4428 15.5618 97.9089 16.354 95.8503 17.2319C96.4861 17.5649 97.0764 17.7314 97.6213 17.7314C98.1763 17.7314 98.6708 17.6659 99.1047 17.5347C99.5487 17.4035 100.048 17.2168 100.603 16.9746C101.158 16.7324 101.749 16.4448 102.374 16.1118C103.01 15.7687 103.651 15.3953 104.297 14.9917C105.74 14.0936 106.991 13.1753 108.051 12.2368C108.606 11.7222 109.312 11.3135 110.17 11.0107C110.452 10.9199 110.699 10.8745 110.911 10.8745ZM94.2155 15.1279L95.0481 14.7041C95.3205 14.5628 95.5627 14.4316 95.7746 14.3105C97.813 13.14 98.9735 12.4185 99.2561 12.146C99.5386 11.8735 99.6799 11.6868 99.6799 11.5859C99.6799 11.4749 99.6496 11.3488 99.5891 11.2075C99.5285 11.0662 99.4478 10.9401 99.3469 10.8291C99.1047 10.5465 98.8474 10.4053 98.5749 10.4053C98.3025 10.4053 97.9997 10.4557 97.6667 10.5566C97.3438 10.6576 97.0158 10.7988 96.6828 10.9805C96.3498 11.152 96.0269 11.3639 95.7141 11.6162C95.4113 11.8584 95.1439 12.1208 94.9118 12.4033C94.377 13.0391 94.1096 13.589 94.1096 14.0532C94.1096 14.5174 94.1449 14.8757 94.2155 15.1279Z" fill="#23242A"/>
<path d="M25.8242 6.77246C24.8252 6.77246 24.1289 6.29818 23.7354 5.34961C22.2822 5.34961 20.6878 5.7028 18.9521 6.40918C17.8724 6.85319 17.1458 7.26188 16.7725 7.63525C16.3991 8.00863 16.1973 8.30127 16.167 8.51318C16.1468 8.7251 16.2528 8.90674 16.4849 9.05811C16.717 9.19938 17.0399 9.33561 17.4536 9.4668C17.8774 9.59798 18.3669 9.72917 18.9219 9.86035C21.8281 10.5365 23.6698 11.0057 24.4468 11.2681C25.9907 11.7827 27.1462 12.3478 27.9131 12.9634C28.6396 13.5789 29.0029 14.4165 29.0029 15.4761C29.0029 16.354 28.7305 17.0957 28.1855 17.7012C27.6507 18.3066 26.9393 18.8465 26.0513 19.3208C25.1632 19.7951 24.1693 20.2189 23.0693 20.5923C21.9795 20.9556 20.8241 21.2684 19.603 21.5308C18.3921 21.7931 17.1963 22.0101 16.0156 22.1816C13.7048 22.5046 11.7319 22.666 10.0972 22.666C7.12028 22.666 4.82454 22.3078 3.20996 21.5913C2.60449 21.3188 2.11003 20.6377 1.72656 19.5479C1.42383 18.6497 1.27246 17.9131 1.27246 17.3379C1.27246 16.7526 1.32292 16.4297 1.42383 16.3691C1.52474 16.3086 1.73161 16.3086 2.04443 16.3691C2.35726 16.4196 2.76595 16.5104 3.27051 16.6416L5.08691 17.126C7.90234 17.8324 10.8792 18.1855 14.0176 18.1855C16.3285 18.1855 18.2861 17.9787 19.8906 17.5649C20.8392 17.3127 21.3438 17.0301 21.4043 16.7173C21.4447 16.4448 20.6979 16.1068 19.1641 15.7031C18.4678 15.5114 17.6605 15.3096 16.7422 15.0977C12.292 14.0179 9.60775 13.3216 8.68945 13.0088C7.77116 12.696 7.17074 12.4185 6.88818 12.1763C6.61572 11.9341 6.38867 11.6667 6.20703 11.374C5.87402 10.7988 5.70752 10.2539 5.70752 9.73926C5.70752 9.21452 5.73275 8.81087 5.7832 8.52832C5.84375 8.24577 5.92448 7.9834 6.02539 7.74121C6.2373 7.24674 6.50472 6.90869 6.82764 6.72705C9.42106 5.27393 13.2305 3.9974 18.2559 2.89746C22.7262 1.90853 26.4045 1.41406 29.2905 1.41406C29.8758 1.41406 30.3148 1.51497 30.6074 1.7168C31.112 2.09017 31.334 2.48877 31.2734 2.9126C31.2129 3.33643 31.0817 3.72998 30.8799 4.09326C30.6882 4.44645 30.446 4.76937 30.1533 5.06201C29.8607 5.34456 29.5327 5.59684 29.1694 5.81885C28.8162 6.03076 28.4479 6.20736 28.0645 6.34863C27.2975 6.63119 26.5508 6.77246 25.8242 6.77246Z" stroke="#11131E" stroke-opacity="0.2" stroke-width="2" mask="url(#path-1-outside-1_3_138)"/>
<path d="M36.2922 18.2158C36.6252 18.0745 37.0894 17.8525 37.6847 17.5498C41.3276 15.6829 43.3257 14.6536 43.6789 14.4619L44.3146 14.1138C44.9706 13.6899 45.2733 13.3569 45.2228 13.1147C45.1118 12.6001 44.8343 12.3932 44.3903 12.4941C43.9463 12.585 43.4821 12.7111 42.9977 12.8726C42.5234 13.034 42.0189 13.2308 41.4841 13.4629C40.3639 13.9271 39.3801 14.3913 38.5324 14.8555C35.5656 16.5609 33.7795 17.5952 33.174 17.9585C32.7401 18.9373 32.3516 19.9111 32.0085 20.8799L30.1769 26.0566C29.6017 27.6611 29.0215 28.7459 28.4362 29.311C28.1234 29.6239 27.7752 29.7803 27.3918 29.7803C26.4432 29.7803 25.6965 29.4473 25.1515 28.7812C24.6066 28.1253 24.3342 27.2878 24.3342 26.2686C24.3342 25.2594 24.4653 24.2604 24.7277 23.2715C24.9901 22.2926 25.3534 21.2987 25.8176 20.2896C26.756 18.2511 28.0124 16.349 29.5866 14.583C30.5453 12.0098 32.1397 9.51221 34.3698 7.09033C35.7321 5.61702 36.9985 4.57764 38.1691 3.97217C38.7544 3.66943 39.2539 3.51807 39.6677 3.51807C40.0814 3.51807 40.3942 3.61393 40.6061 3.80566C40.818 3.9873 40.924 4.2194 40.924 4.50195C40.924 4.77441 40.8382 5.12256 40.6667 5.54639C40.4951 5.97021 40.263 6.4445 39.9704 6.96924C39.6777 7.49398 39.3346 8.05404 38.9411 8.64941L37.6847 10.481C37.5838 10.6323 37.5334 10.7686 37.5334 10.8896C37.5334 11.0814 37.6494 11.1772 37.8815 11.1772C38.1439 11.1772 38.6283 11.0107 39.3346 10.6777L41.7565 9.55762C43.8757 8.59896 45.904 8.11963 47.8415 8.11963C48.8506 8.11963 49.7992 8.59896 50.6872 9.55762C51.5853 10.5264 52.0344 11.5658 52.0344 12.6758C52.0344 14.3913 51.333 15.7132 49.9304 16.6416L48.0534 17.8828C47.3773 18.3066 46.681 18.7254 45.9645 19.1392L43.7848 20.335C41.3327 21.6064 39.4356 22.2422 38.0934 22.2422C36.7614 22.2422 35.7927 22.0757 35.1872 21.7427C34.5817 21.4097 34.279 20.9404 34.279 20.335C34.279 19.5176 34.95 18.8112 36.2922 18.2158Z" stroke="#11131E" stroke-opacity="0.2" stroke-width="2" mask="url(#path-1-outside-1_3_138)"/>
<path d="M76.9579 10.6323C77.2808 10.6323 77.4422 10.9048 77.4422 11.4497C77.4422 12.3882 76.7863 13.6042 75.4745 15.0977L74.6117 15.9756C71.9981 18.5892 69.5358 20.3299 67.225 21.1978C65.792 21.7326 64.7627 21.7074 64.1371 21.1221C63.6224 20.6276 63.2137 19.8304 62.911 18.7305L62.5477 17.4136L59.3236 19.3965L57.4618 20.4561C55.2417 21.667 53.5767 22.2725 52.4667 22.2725C51.0438 22.2725 49.8581 21.7225 48.9095 20.6226C48.0013 19.5832 47.5472 18.3773 47.5472 17.0049C47.5472 15.6527 48.0871 14.4468 49.1669 13.3872C50.7108 11.8735 53.1478 10.486 56.4779 9.22461C59.6263 8.04395 62.1693 7.45361 64.1068 7.45361C64.7627 7.45361 65.0907 7.77653 65.0907 8.42236C65.0907 8.86637 65.0049 9.19938 64.8334 9.42139C64.6618 9.64339 64.3086 9.87044 63.7738 10.1025L61.8666 10.9199C59.041 12.1006 56.9724 13.3267 55.6605 14.5981C55.2871 14.9513 55.1004 15.2944 55.1004 15.6274C55.1004 15.9604 55.3679 16.127 55.9027 16.127C56.4274 16.127 57.6485 15.5618 59.5658 14.4316L60.8221 13.6899C62.7697 12.5194 64.3994 11.9341 65.7113 11.9341C66.8213 11.9341 67.558 12.4235 67.9212 13.4023C68.0121 13.6647 68.0978 13.9321 68.1786 14.2046C68.2593 14.467 68.34 14.7041 68.4208 14.916C68.6024 15.4105 68.7639 15.6577 68.9051 15.6577C69.0565 15.6577 69.2684 15.5871 69.5409 15.4458C69.8133 15.2944 70.111 15.1077 70.4339 14.8857C70.767 14.6536 71.1101 14.4014 71.4632 14.1289L73.2948 12.6606C74.9195 11.3084 76.1405 10.6323 76.9579 10.6323Z" stroke="#11131E" stroke-opacity="0.2" stroke-width="2" mask="url(#path-1-outside-1_3_138)"/>
<path d="M94.4341 12.2368C94.4341 12.7111 93.8135 13.6294 92.5723 14.9917C91.3008 16.3742 90.0546 17.4993 88.8335 18.3672C86.4722 20.123 83.8536 21.3239 80.9776 21.9697C79.8877 22.222 78.8534 22.3481 77.8745 22.3481C76.9058 22.3481 76.0985 22.2624 75.4527 22.0908C74.8169 21.9294 74.2417 21.7124 73.7271 21.4399C73.2225 21.1574 72.7836 20.8345 72.4102 20.4712C72.0368 20.1079 71.724 19.7244 71.4717 19.3208C70.9772 18.5337 70.73 17.8071 70.73 17.1411C70.73 16.4751 70.8057 15.8898 70.9571 15.3853C71.0983 14.8807 71.3002 14.4014 71.5625 13.9473C72.4808 12.2923 74.3275 10.8291 77.1026 9.55762C79.2924 8.53841 81.3812 7.87744 83.3692 7.57471C84.2269 7.44352 84.8374 7.37793 85.2007 7.37793C85.564 7.37793 85.8667 7.41829 86.1089 7.49902C86.3612 7.56966 86.5782 7.67057 86.7598 7.80176C87.1635 8.0944 87.3653 8.493 87.3653 8.99756C87.3653 9.50212 87.2341 9.98145 86.9717 10.4355C86.7094 10.8796 86.3763 11.2529 85.9727 11.5557C85.1856 12.141 84.3077 12.4336 83.3389 12.4336C82.017 12.4336 80.9271 12.262 80.0694 11.9189C79.474 12.1309 78.9694 12.5194 78.5557 13.0845C78.2126 13.5487 78.0411 13.9674 78.0411 14.3408C78.0411 14.7041 78.1218 15.0623 78.2832 15.4155C78.4548 15.7586 78.6919 16.0664 78.9947 16.3389C79.6607 16.9242 80.4629 17.2168 81.4014 17.2168C83.5811 17.2168 86.119 16.0614 89.0152 13.7505L90.3926 12.6758C91.8457 11.5658 92.8801 11.0107 93.4956 11.0107C94.1213 11.0107 94.4341 11.4194 94.4341 12.2368Z" stroke="#11131E" stroke-opacity="0.2" stroke-width="2" mask="url(#path-1-outside-1_3_138)"/>
<path d="M110.911 10.8745C111.396 10.8745 111.638 11.147 111.638 11.6919C111.638 12.0552 111.512 12.5143 111.259 13.0693C111.017 13.6143 110.664 14.1289 110.2 14.6133C109.736 15.0876 109.201 15.582 108.595 16.0967C108 16.6113 107.299 17.1512 106.491 17.7163C105.694 18.2814 104.811 18.8415 103.842 19.3965C102.874 19.9515 101.844 20.451 100.755 20.895C98.3428 21.884 96.0067 22.3784 93.7463 22.3784C92.0207 22.3784 90.5121 21.9294 89.2204 21.0312C87.8682 20.0928 87.1921 18.9525 87.1921 17.6104C87.1921 15.5013 88.3274 13.4982 90.5979 11.6011C92.5555 9.96631 94.8614 8.69987 97.5154 7.80176C99.1299 7.25684 100.497 6.98438 101.617 6.98438C102.526 6.98438 103.293 7.20638 103.918 7.65039C104.584 8.13477 104.917 8.78564 104.917 9.60303C104.917 10.8846 103.903 12.3024 101.875 13.8564C101.552 14.1087 101.259 14.3206 100.997 14.4922L100.452 14.8555C99.4428 15.5618 97.9089 16.354 95.8503 17.2319C96.4861 17.5649 97.0764 17.7314 97.6213 17.7314C98.1763 17.7314 98.6708 17.6659 99.1047 17.5347C99.5487 17.4035 100.048 17.2168 100.603 16.9746C101.158 16.7324 101.749 16.4448 102.374 16.1118C103.01 15.7687 103.651 15.3953 104.297 14.9917C105.74 14.0936 106.991 13.1753 108.051 12.2368C108.606 11.7222 109.312 11.3135 110.17 11.0107C110.452 10.9199 110.699 10.8745 110.911 10.8745ZM94.2155 15.1279L95.0481 14.7041C95.3205 14.5628 95.5627 14.4316 95.7746 14.3105C97.813 13.14 98.9735 12.4185 99.2561 12.146C99.5386 11.8735 99.6799 11.6868 99.6799 11.5859C99.6799 11.4749 99.6496 11.3488 99.5891 11.2075C99.5285 11.0662 99.4478 10.9401 99.3469 10.8291C99.1047 10.5465 98.8474 10.4053 98.5749 10.4053C98.3025 10.4053 97.9997 10.4557 97.6667 10.5566C97.3438 10.6576 97.0158 10.7988 96.6828 10.9805C96.3498 11.152 96.0269 11.3639 95.7141 11.6162C95.4113 11.8584 95.1439 12.1208 94.9118 12.4033C94.377 13.0391 94.1096 13.589 94.1096 14.0532C94.1096 14.5174 94.1449 14.8757 94.2155 15.1279Z" stroke="#11131E" stroke-opacity="0.2" stroke-width="2" mask="url(#path-1-outside-1_3_138)"/>
</g>
</svg>
